PathFileType	4	(X/Y/Z)	Patient4_TMGait_0pt5_01_right_11.trc.trc
DataRate	CameraRate	NumFrames	NumMarkers	Units	OrigDataRate	OrigDataStartFrame	OrigNumFrames
73.298429319372	73.298429319372	6	33	mm	73.298429319372	1	       141
Frame#	Time	L.ASIS			Sacral			L.Shoulder			Chest			R.Shoulder			Neck			R.ASIS			R.Thigh.Superior			R.Thigh.Lateral			R.Thigh.Inferior			R.Patella			L.Thigh.Superior			L.Thigh.Lateral			L.Thigh.Inferior			L.Patella			L.Shank.Superior			L.Shank.Lateral			L.Shank.Inferior			R.Shank.Superior			R.Shank.Lateral			R.Shank.Inferior			R.Heel			R.Midfoot.Superior			R.Midfoot.Lateral			R.Toe			L.Heel			L.Midfoot.Lateral			L.Midfoot.Superior			L.Toe			L.Elbow			L.Wrist			R.Elbow			R.Wrist			
		X1	Y1	Z1	X2	Y2	Z2	X3	Y3	Z3	X4	Y4	Z4	X5	Y5	Z5	X6	Y6	Z6	X7	Y7	Z7	X8	Y8	Z8	X9	Y9	Z9	X10	Y10	Z10	X11	Y11	Z11	X12	Y12	Z12	X13	Y13	Z13	X14	Y14	Z14	X15	Y15	Z15	X16	Y16	Z16	X17	Y17	Z17	X18	Y18	Z18	X19	Y19	Z19	X20	Y20	Z20	X21	Y21	Z21	X22	Y22	Z22	X23	Y23	Z23	X24	Y24	Z24	X25	Y25	Z25	X26	Y26	Z26	X27	Y27	Z27	X28	Y28	Z28	X29	Y29	Z29	X30	Y30	Z30	X31	Y31	Z31	X32	Y32	Z32	X33	Y33	Z33	

1	14.120000000000	760.997947568711	964.119724612217	274.495092399489	546.822479271984	1013.705939767081	432.586768852039	718.483481038815	1436.916093115522	239.444546795150	822.183362252512	1371.351450972280	401.891707378224	739.518777595628	1447.764531389810	575.956836833899	717.713755997668	1502.801602684231	389.595985932142	773.013448063773	952.897375920108	549.062316057797	849.892227889558	774.303262072013	519.882742296577	803.533486432308	654.395696973167	590.727353414769	891.753782673376	611.463931973058	511.722335169132	904.750199441501	497.044032824032	533.360041281463	801.935361711697	750.776529253776	307.492782939550	707.505150129079	639.420699245498	252.068256613213	787.741312453361	559.564665107549	316.653919672088	784.743305470251	491.813914865498	328.060893259243	762.947500688535	421.340206913538	321.562692573119	678.000149804067	302.058882190157	275.608435903145	735.328206984940	195.733185985311	349.573558249637	828.172375787798	424.055056489067	540.190159172963	706.951128237923	383.848521840217	600.143547196155	692.003230328679	275.548289758798	551.394722309990	488.829029907137	208.875143241662	521.677240577273	659.773099756089	161.221076980692	567.839695073326	550.310000359336	161.477974541582	601.824249823518	728.974184159044	56.205350679821	610.268674002301	612.618344266048	37.794170102395	398.912360007681	685.723908743333	34.792060195940	316.723880075913	769.110310077794	96.306466394774	341.129041811975	897.186306097697	45.073733691804	312.642655378517	720.301251285725	1085.741642879329	107.762902855925	863.740852963164	866.285904330592	95.660563804386	724.450207393913	1096.911347374986	690.736713921717	828.305257016180	855.975680730810	682.887216150565	
2	14.133642857143	761.242653414050	964.069442785971	274.612079414329	545.792298743076	1013.590543929629	431.037617342073	720.131749300260	1437.074226409724	239.422441426437	821.898701162725	1371.221792677468	402.941167318594	737.453001744973	1447.436528908321	576.130756282306	717.804349845520	1502.810004971524	389.626753606051	771.432291502641	953.349419803268	549.226459735186	850.273121895522	776.762705135554	519.568399259775	806.412590998405	656.616247625239	590.867519001977	894.054643497217	614.506064627402	510.923403900110	909.726059765942	501.451346549363	532.976830376505	800.715149826546	750.093806838930	307.864654130380	705.862562366169	639.140810153803	251.978566033906	785.187042756113	558.844998845200	316.961000812834	781.515524589545	491.041757630361	328.499740713876	759.204043510400	420.709623836887	321.913020882077	673.538403903077	302.113852536547	275.550278560054	729.380577185626	195.308709985224	349.780553410919	836.283787252573	426.294321658558	540.348391283016	717.716447094734	380.736678134776	600.889177090640	707.701686658657	271.985428553750	552.243516365146	508.380512206083	196.091572321032	523.517789959419	681.122753160306	156.795811436230	569.208202608186	572.175456226798	151.675082794193	603.372370582761	754.958058573528	55.018320296569	610.853638819080	605.401193096725	37.873535821368	398.901307616815	678.564037559047	34.837408086587	316.743023678559	762.046637661030	96.194908585556	341.262569356486	890.091601208930	44.587454663652	312.703837306559	726.610068399330	1087.313711266659	105.225882290176	879.355264293295	875.058495301010	92.924522778760	711.588721074147	1098.218215551471	691.321711808779	801.434519154095	853.012515888652	686.721604041975	
3	14.147285714286	761.539460029483	964.042801161597	274.742689091274	544.802863222329	1013.475464408132	429.535567635689	721.745711624255	1437.222497365225	239.432048523893	821.612056070205	1371.096491326911	404.002217851533	735.400180108565	1447.119412499514	576.322304517592	717.891028841873	1502.814553149538	389.686578372360	769.867725579753	953.767642687670	549.409874646290	850.555629678516	779.103438917507	519.306800303501	809.080543079464	658.738964738662	591.064856988632	896.146611361969	617.405711794282	510.219544694849	914.444787862165	505.774257024758	532.683758205073	799.508241117563	749.401675885433	308.214642530186	704.174260663268	638.870249260739	251.897460214562	782.581152654914	558.119900048959	317.256103014493	778.229161282424	490.274101343153	328.942300947746	755.419033367067	420.083011979280	322.260023382503	669.048696667726	302.163583012992	275.496604754834	723.439676572977	194.893206143938	349.987159699767	844.221756669558	428.459993951280	540.568364424516	728.405849109325	377.480930558678	601.669897682139	723.439292629650	268.342178230864	553.113241981625	528.187669131341	183.106354433005	525.304047460828	702.620110786313	152.357295196819	570.590827174968	594.259043265453	141.767385174712	604.906595909869	781.108318082615	53.952837474062	611.467292012567	598.218046199736	37.950251161424	398.884868128147	671.432421742770	34.879798673307	316.760531408853	755.009194742140	96.089196217441	341.389900013094	883.024647272104	44.119532556309	312.762251759913	732.853000762509	1088.884395387076	102.753562235570	894.810924647023	883.901051896635	90.290730512651	698.777345030500	1099.609533351226	691.904339605721	774.814800226317	850.360793608873	690.505383162709	
4	14.160928571429	761.910457101741	964.040447731882	274.911756793523	543.899417149865	1013.356440238417	428.131168030835	723.294395536739	1437.347842531488	239.509854870448	821.328343461645	1370.974398968752	405.088870718525	733.393427038581	1446.822895949947	576.557203344565	717.971571767738	1502.806653805923	389.807807480140	768.346573075997	954.115900767104	549.637456540903	850.643846104406	781.186901345751	519.162274933062	811.305064732220	660.644444359475	591.375660397466	897.816996530509	619.998704959212	509.713006617889	918.623265552025	509.892609912714	532.556266266741	798.314427687729	748.690279128982	308.544661346557	702.395561696446	638.621423588316	251.832914949978	779.864081214175	557.388747609227	317.534899908976	774.822058574450	489.520912826324	329.385443032986	751.545799560053	419.473490099700	322.596737099745	664.503476633024	302.205999356280	275.449495650204	717.519831578410	194.500026683550	350.190375603140	851.765036399455	430.484248849269	540.901787188728	738.907693116057	374.005292121735	602.516569713850	739.168364903737	264.632187420715	554.015954877224	548.403802508751	169.927030813225	526.990988845759	724.297823684257	147.988062297331	571.978290747214	616.671475353823	131.804507233037	606.389737250352	807.428265545605	53.186007769955	612.089838100614	591.119292549519	38.021980584251	398.860087681543	664.374360508760	34.916503213592	316.774892272674	748.040872217342	95.993632629437	341.505421530280	876.029672822287	43.688690779559	312.815838169694	738.940075758728	1090.440794482406	100.427806368868	909.873106714307	892.837392594879	87.879713178020	686.148178013830	1101.154629435179	692.473883090798	748.832689978968	848.301090128336	694.165043120615	
5	14.174571428571	762.369283341492	964.055612783279	275.149036139733	543.118524426236	1013.229689978190	426.861277534100	724.759282148200	1437.438988736376	239.690485178341	821.054429737048	1370.853111407941	406.219278752731	731.461507583967	1446.553328703297	576.861659099691	718.045624020294	1502.777575829783	390.020739099763	766.889410446280	954.362985790354	549.936382629634	850.453759066585	782.891898309778	519.196388627100	812.874946030978	662.223891010155	591.844467815207	898.883110814461	622.141141462199	509.499501550834	922.020290858019	513.704825820112	532.657097185358	797.117266068227	747.947326156538	308.873084665231	700.477797204169	638.406001801898	251.790736543859	776.962964887215	556.650554003903	317.800026818629	771.217550981350	488.790727719151	329.825432663942	747.518762678469	418.894032290444	322.917243149933	659.854867633754	302.240142218742	275.409022891045	711.607490699727	194.140755901672	350.388021867390	858.736308958052	432.319403500169	541.389544745604	749.165200592649	370.254160869294	603.460677785289	754.887555347850	260.893853501618	554.960337629217	569.224175451150	156.595987840749	528.551264440515	746.234885577907	143.778015899608	573.344873363858	639.577448934922	121.856181260292	607.787401914111	833.974640675444	52.899707312886	612.678890189612	584.121981112737	38.086666213589	398.824166922750	657.403175151938	34.944722176056	316.785043226101	741.153405647018	95.911594535084	341.604790029957	869.118798173646	43.310040305767	312.863077390790	744.811931533502	1091.974891187550	98.316389804802	924.374864479592	901.910914106995	85.794413760759	673.791330261689	1102.915301110838	693.017237365164	723.761734917940	847.052891002999	697.645678151689	
6	14.188214285714	762.918058513925	964.073704771429	275.485736657474	542.485934798479	1013.091436041084	425.748024807934	726.134300143724	1437.486844717482	240.003712953672	820.799213080904	1370.728486719231	407.412747733433	729.630141081621	1446.313178992981	577.260543833183	718.114687608957	1502.718532597449	390.350792855183	765.512056207579	954.485361852604	550.333550473943	849.923620784459	784.123617612974	519.462228813219	813.620460151516	663.386947288408	592.498891052492	899.211194849564	623.720528996676	509.657812858823	924.456126865422	517.130067906150	533.027606096086	795.887587288467	747.160340836601	309.233324604951	698.377296101231	638.233687231720	251.774416823379	773.804759001759	555.905355094425	318.060884321733	767.339735938900	488.091169960905	330.256784262636	743.266959093467	418.357190185583	323.216751647321	655.047434066969	302.266455845378	275.373331635405	705.672297644669	193.824618904478	350.578270300659	865.006576723567	433.940255633088	542.055678450955	759.161513217000	366.209343225185	604.528291392102	770.608387168060	257.197929807265	555.948714878117	590.819724792180	143.221398881060	529.975946448927	768.502698775729	139.828108529902	574.649337161631	663.128996513274	112.030973884541	609.067938728951	860.794524821657	53.262766520437	613.170629434571	577.219164394018	38.142902270112	398.775244264732	650.510252438762	34.962118899641	316.790415716962	734.337402222189	95.845234707692	341.685181653867	862.282025487244	42.993703896808	312.903236360571	750.435151904241	1093.480753905687	96.470727152120	938.206492893413	911.162118446536	84.114160906416	661.771368352010	1104.934058434068	693.519489493120	699.783574885097	846.750196070700	700.909382430388	
